<svg xmlns="http://www.w3.org/2000/svg" viewBox="0 0 1200 520" width="1200" height="520">
  <defs>
    <style>
      .panel-bg { fill: #0d1a2e; }
      .panel-border { fill: none; stroke: #1a2a44; stroke-width: 1; }
      .wood { fill: #8b5e3c; }
      .section-label { fill: #7799bb; font-family: 'Helvetica Neue', Arial, sans-serif; font-size: 7px; font-weight: 700; text-transform: uppercase; letter-spacing: 1px; text-anchor: middle; }
      .sub-label { fill: #5577aa; font-family: 'Helvetica Neue', Arial, sans-serif; font-size: 5px; text-anchor: middle; letter-spacing: 0.5px; }
      .knob-large { fill: #111; stroke: #444; stroke-width: 1.2; }
      .knob-small { fill: #111; stroke: #3a3a3a; stroke-width: 1; }
      .knob-indicator { fill: none; stroke: #ccc; stroke-width: 1.5; stroke-linecap: round; }
      .knob-indicator-sm { fill: none; stroke: #bbb; stroke-width: 1.2; stroke-linecap: round; }
      .knob-label { fill: #99aabb; font-family: 'Helvetica Neue', Arial, sans-serif; font-size: 5.5px; text-anchor: middle; }
      .switch { fill: #222; stroke: #444; stroke-width: 0.8; rx: 1.5; }
      .switch-label { fill: #7799bb; font-family: 'Helvetica Neue', Arial, sans-serif; font-size: 5px; text-anchor: middle; }
      .led-blue { fill: #1144aa; stroke: #2266dd; stroke-width: 0.5; }
      .led-red { fill: #661122; stroke: #aa2244; stroke-width: 0.5; }
      .led-off { fill: #1a1a2a; stroke: #333; stroke-width: 0.5; }
      .lcd { fill: #0a2a1a; stroke: #2a5a3a; stroke-width: 1; rx: 3; }
      .lcd-text { fill: #33bb66; font-family: 'Courier New', monospace; font-size: 9px; text-anchor: middle; }
      .logo-text { fill: #6699cc; font-family: 'Helvetica Neue', Arial, sans-serif; font-size: 16px; font-weight: 700; font-style: italic; letter-spacing: 2px; }
      .brand-text { fill: #8899aa; font-family: 'Helvetica Neue', Arial, sans-serif; font-size: 8px; font-weight: 300; letter-spacing: 1.5px; }
      .divider { stroke: #1a2a44; stroke-width: 0.5; stroke-dasharray: 2,2; }
      .key-white { fill: #f0ece4; stroke: #bbb; stroke-width: 0.5; rx: 2; }
      .key-black { fill: #1a1a1a; stroke: #111; stroke-width: 0.5; rx: 1; }
      .wheel-bg { fill: #111; stroke: #333; stroke-width: 0.8; rx: 4; }
      .wheel { fill: #222; stroke: #555; stroke-width: 0.8; rx: 2; }
      .param-text { fill: #556677; font-family: 'Helvetica Neue', Arial, sans-serif; font-size: 4.5px; text-anchor: start; }
    </style>
  </defs>

  <!-- Wood side cheeks -->
  <rect class="wood" x="0" y="0" width="18" height="520" rx="3" />
  <rect class="wood" x="1182" y="0" width="18" height="520" rx="3" />

  <!-- Main panel background -->
  <rect class="panel-bg" x="18" y="0" width="1164" height="520" />

  <!-- ==================== TOP ROW (y: 10-155) ==================== -->

  <!-- EVOLVER LOGO -->
  <text class="logo-text" x="36" y="32">evolver</text>

  <!-- ===== ENVELOPE 3 ===== -->
  <text class="section-label" x="110" y="18">Envelope 3</text>
  <g id="knob-env3-destination" transform="translate(68, 52)">
    <circle class="knob-small" r="10" />
    <line class="knob-indicator-sm" x1="0" y1="-3" x2="0" y2="-8" />
    <text class="knob-label" y="18">Destination</text>
  </g>
  <g id="knob-env3-amount" transform="translate(104, 52)">
    <circle class="knob-small" r="10" />
    <line class="knob-indicator-sm" x1="0" y1="-3" x2="0" y2="-8" />
    <text class="knob-label" y="18">Amount</text>
  </g>
  <g id="knob-env3-velocity" transform="translate(140, 52)">
    <circle class="knob-small" r="10" />
    <line class="knob-indicator-sm" x1="0" y1="-3" x2="0" y2="-8" />
    <text class="knob-label" y="18">Velocity</text>
  </g>
  <g id="knob-env3-delay" transform="translate(176, 52)">
    <circle class="knob-small" r="10" />
    <line class="knob-indicator-sm" x1="0" y1="-3" x2="0" y2="-8" />
    <text class="knob-label" y="18">Delay</text>
  </g>
  <!-- Env 3 ADSR -->
  <g id="knob-env3-attack" transform="translate(68, 108)">
    <circle class="knob-small" r="10" />
    <line class="knob-indicator-sm" x1="0" y1="-3" x2="0" y2="-8" />
    <text class="knob-label" y="18">Attack</text>
  </g>
  <g id="knob-env3-decay" transform="translate(104, 108)">
    <circle class="knob-small" r="10" />
    <line class="knob-indicator-sm" x1="0" y1="-3" x2="0" y2="-8" />
    <text class="knob-label" y="18">Decay</text>
  </g>
  <g id="knob-env3-sustain" transform="translate(140, 108)">
    <circle class="knob-small" r="10" />
    <line class="knob-indicator-sm" x1="0" y1="-3" x2="0" y2="-8" />
    <text class="knob-label" y="18">Sustain</text>
  </g>
  <g id="knob-env3-release" transform="translate(176, 108)">
    <circle class="knob-small" r="10" />
    <line class="knob-indicator-sm" x1="0" y1="-3" x2="0" y2="-8" />
    <text class="knob-label" y="18">Release</text>
  </g>

  <line class="divider" x1="205" y1="10" x2="205" y2="145" />

  <!-- ===== LFOs ===== -->
  <text class="section-label" x="282" y="18">LFOs</text>
  <g id="knob-lfo-frequency" transform="translate(225, 52)">
    <circle class="knob-small" r="10" />
    <line class="knob-indicator-sm" x1="0" y1="-3" x2="0" y2="-8" />
    <text class="knob-label" y="18">Frequency</text>
  </g>
  <g id="knob-lfo-shape" transform="translate(265, 52)">
    <circle class="knob-small" r="10" />
    <line class="knob-indicator-sm" x1="0" y1="-3" x2="0" y2="-8" />
    <text class="knob-label" y="18">Shape</text>
  </g>
  <!-- LFO 1-4 switches with LEDs -->
  <g id="switch-lfo1" transform="translate(310, 36)">
    <rect class="switch" width="14" height="10" />
    <text class="switch-label" x="7" y="8">1</text>
    <circle class="led-red" cx="20" cy="5" r="3" />
  </g>
  <g id="switch-lfo2" transform="translate(310, 54)">
    <rect class="switch" width="14" height="10" />
    <text class="switch-label" x="7" y="8">2</text>
    <circle class="led-off" cx="20" cy="5" r="3" />
  </g>
  <g id="switch-lfo3" transform="translate(310, 72)">
    <rect class="switch" width="14" height="10" />
    <text class="switch-label" x="7" y="8">3</text>
    <circle class="led-off" cx="20" cy="5" r="3" />
  </g>
  <g id="switch-lfo4" transform="translate(310, 90)">
    <rect class="switch" width="14" height="10" />
    <text class="switch-label" x="7" y="8">4</text>
    <circle class="led-off" cx="20" cy="5" r="3" />
  </g>
  <g id="switch-lfo-keysync" transform="translate(310, 112)">
    <rect class="switch" width="14" height="10" />
    <text class="switch-label" x="7" y="8">KS</text>
  </g>
  <g id="knob-lfo-destination" transform="translate(225, 108)">
    <circle class="knob-small" r="10" />
    <line class="knob-indicator-sm" x1="0" y1="-3" x2="0" y2="-8" />
    <text class="knob-label" y="18">Destination</text>
  </g>
  <g id="knob-lfo-amount" transform="translate(265, 108)">
    <circle class="knob-small" r="10" />
    <line class="knob-indicator-sm" x1="0" y1="-3" x2="0" y2="-8" />
    <text class="knob-label" y="18">Amount</text>
  </g>

  <line class="divider" x1="350" y1="10" x2="350" y2="145" />

  <!-- ===== SEQUENCER CENTER ===== -->
  <text class="section-label" x="460" y="118">16 x 4 Sequencer</text>
  <!-- Sequencer LEDs 1-16 (two columns of 8) -->
  <g id="seq-leds">
    <circle id="led-seq-1" class="led-blue" cx="370" cy="30" r="4" />
    <circle id="led-seq-2" class="led-off" cx="390" cy="30" r="4" />
    <circle id="led-seq-3" class="led-off" cx="410" cy="30" r="4" />
    <circle id="led-seq-4" class="led-off" cx="430" cy="30" r="4" />
    <circle id="led-seq-5" class="led-off" cx="450" cy="30" r="4" />
    <circle id="led-seq-6" class="led-off" cx="470" cy="30" r="4" />
    <circle id="led-seq-7" class="led-off" cx="490" cy="30" r="4" />
    <circle id="led-seq-8" class="led-off" cx="510" cy="30" r="4" />
    <circle id="led-seq-9" class="led-off" cx="370" cy="50" r="4" />
    <circle id="led-seq-10" class="led-off" cx="390" cy="50" r="4" />
    <circle id="led-seq-11" class="led-off" cx="410" cy="50" r="4" />
    <circle id="led-seq-12" class="led-off" cx="430" cy="50" r="4" />
    <circle id="led-seq-13" class="led-off" cx="450" cy="50" r="4" />
    <circle id="led-seq-14" class="led-off" cx="470" cy="50" r="4" />
    <circle id="led-seq-15" class="led-off" cx="490" cy="50" r="4" />
    <circle id="led-seq-16" class="led-off" cx="510" cy="50" r="4" />
  </g>

  <!-- Program/Global/Compare/Write buttons -->
  <g id="switch-program" transform="translate(530, 26)">
    <rect class="switch" width="28" height="12" />
    <text class="switch-label" x="14" y="9">Program</text>
  </g>
  <g id="switch-global" transform="translate(530, 46)">
    <rect class="switch" width="28" height="12" />
    <text class="switch-label" x="14" y="9">Global</text>
  </g>
  <g id="switch-compare" transform="translate(530, 66)">
    <rect class="switch" width="28" height="12" />
    <text class="switch-label" x="14" y="9">Compare</text>
  </g>
  <g id="switch-write" transform="translate(530, 86)">
    <rect class="switch" width="28" height="12" />
    <text class="switch-label" x="14" y="9">Write</text>
  </g>

  <!-- Seq Edit / Start-Stop / Reset -->
  <g id="switch-seq-edit" transform="translate(375, 72)">
    <rect class="switch" width="30" height="10" />
    <text class="switch-label" x="15" y="8">Seq Edit</text>
  </g>
  <g id="switch-startstop" transform="translate(415, 72)">
    <rect class="switch" width="34" height="10" />
    <text class="switch-label" x="17" y="8">Start/Stop</text>
  </g>
  <g id="switch-reset" transform="translate(460, 72)">
    <rect class="switch" width="26" height="10" />
    <text class="switch-label" x="13" y="8">Reset</text>
  </g>

  <!-- Seq 1-4 switches -->
  <g id="switch-seq1" transform="translate(500, 72)">
    <rect class="switch" width="12" height="10" />
    <text class="switch-label" x="6" y="8">1</text>
  </g>
  <g id="switch-seq2" transform="translate(516, 72)">
    <rect class="switch" width="12" height="10" />
    <text class="switch-label" x="6" y="8">2</text>
  </g>
  <g id="switch-seq3" transform="translate(500, 88)">
    <rect class="switch" width="12" height="10" />
    <text class="switch-label" x="6" y="8">3</text>
  </g>
  <g id="switch-seq4" transform="translate(516, 88)">
    <rect class="switch" width="12" height="10" />
    <text class="switch-label" x="6" y="8">4</text>
  </g>

  <line class="divider" x1="570" y1="10" x2="570" y2="145" />

  <!-- ===== LCD DISPLAY ===== -->
  <rect id="lcd-display" class="lcd" x="580" y="22" width="150" height="44" />
  <text class="lcd-text" x="655" y="40">Basic Patch</text>
  <text class="lcd-text" x="655" y="56" font-size="7">P:001 B:1</text>

  <!-- PARAM 1/2, +/Yes, -/No, Select, Value -->
  <g id="knob-param1" transform="translate(750, 32)">
    <circle class="knob-small" r="10" />
    <line class="knob-indicator-sm" x1="0" y1="-3" x2="0" y2="-8" />
    <text class="knob-label" y="18">PARAM 1</text>
  </g>
  <g id="switch-yes" transform="translate(774, 22)">
    <rect class="switch" width="22" height="10" />
    <text class="switch-label" x="11" y="8">+ Yes</text>
  </g>
  <g id="switch-no" transform="translate(774, 38)">
    <rect class="switch" width="22" height="10" />
    <text class="switch-label" x="11" y="8">- No</text>
  </g>
  <g id="knob-param2" transform="translate(750, 88)">
    <circle class="knob-small" r="10" />
    <line class="knob-indicator-sm" x1="0" y1="-3" x2="0" y2="-8" />
    <text class="knob-label" y="18">PARAM 2</text>
  </g>
  <g id="knob-select" transform="translate(810, 52)">
    <circle class="knob-small" r="10" />
    <line class="knob-indicator-sm" x1="0" y1="-3" x2="0" y2="-8" />
    <text class="knob-label" y="18">Select</text>
  </g>
  <g id="knob-value" transform="translate(810, 100)">
    <circle class="knob-small" r="10" />
    <line class="knob-indicator-sm" x1="0" y1="-3" x2="0" y2="-8" />
    <text class="knob-label" y="18">Value</text>
  </g>

  <!-- LCD parameter labels -->
  <text class="param-text" x="585" y="78">Analog / Digital Synth</text>
  <text class="param-text" x="585" y="86">Stereo Audio Processor</text>
  <text class="param-text" x="585" y="94">16 x 4 Sequencer</text>

  <line class="divider" x1="845" y1="10" x2="845" y2="145" />

  <!-- ===== MISC PARAMS ===== -->
  <text class="section-label" x="890" y="18">Misc Params</text>
  <text class="param-text" x="856" y="32">Voice Volume</text>
  <text class="param-text" x="856" y="40">Name</text>
  <text class="param-text" x="856" y="48">Trigger Select</text>
  <text class="param-text" x="856" y="56">Key Mode</text>
  <text class="param-text" x="856" y="64">Key Off/Xpose</text>
  <text class="param-text" x="856" y="72">Pitch/Wheel Range</text>
  <text class="param-text" x="910" y="32">Osc Slop</text>
  <text class="param-text" x="910" y="40">Input Mode</text>
  <text class="param-text" x="910" y="48">Env Shape</text>
  <text class="param-text" x="910" y="56">Input Hack</text>
  <text class="param-text" x="910" y="64">HP Pre/Post</text>
  <text class="param-text" x="910" y="72">Dist Pre/Post</text>

  <g id="switch-misc" transform="translate(876, 84)">
    <rect class="switch" width="28" height="12" />
    <text class="switch-label" x="14" y="9">Misc</text>
  </g>

  <line class="divider" x1="955" y1="10" x2="955" y2="145" />

  <!-- ===== MODULATORS ===== -->
  <text class="section-label" x="1060" y="18">Modulators</text>

  <!-- Mod slots 1-4 with switches -->
  <g id="switch-mod1" transform="translate(1108, 28)">
    <rect class="switch" width="12" height="10" />
    <text class="switch-label" x="6" y="8">1</text>
    <circle class="led-red" cx="18" cy="5" r="3" />
  </g>
  <g id="switch-mod2" transform="translate(1108, 46)">
    <rect class="switch" width="12" height="10" />
    <text class="switch-label" x="6" y="8">2</text>
    <circle class="led-off" cx="18" cy="5" r="3" />
  </g>
  <g id="switch-mod3" transform="translate(1108, 64)">
    <rect class="switch" width="12" height="10" />
    <text class="switch-label" x="6" y="8">3</text>
    <circle class="led-off" cx="18" cy="5" r="3" />
  </g>
  <g id="switch-mod4" transform="translate(1108, 82)">
    <rect class="switch" width="12" height="10" />
    <text class="switch-label" x="6" y="8">4</text>
    <circle class="led-off" cx="18" cy="5" r="3" />
  </g>

  <g id="knob-mod-source" transform="translate(975, 52)">
    <circle class="knob-small" r="10" />
    <line class="knob-indicator-sm" x1="0" y1="-3" x2="0" y2="-8" />
    <text class="knob-label" y="18">Mod Source</text>
  </g>
  <g id="knob-mod-dest" transform="translate(1020, 52)">
    <circle class="knob-small" r="10" />
    <line class="knob-indicator-sm" x1="0" y1="-3" x2="0" y2="-8" />
    <text class="knob-label" y="18">Mod Dest</text>
  </g>
  <g id="knob-mod-amount" transform="translate(1065, 52)">
    <circle class="knob-small" r="10" />
    <line class="knob-indicator-sm" x1="0" y1="-3" x2="0" y2="-8" />
    <text class="knob-label" y="18">Mod Amount</text>
  </g>

  <!-- Misc controllers labels -->
  <text class="param-text" x="966" y="86">Mod Wheel</text>
  <text class="param-text" x="966" y="94">Pressure</text>
  <text class="param-text" x="966" y="102">Breath</text>
  <text class="param-text" x="1030" y="86">Foot Controller</text>
  <text class="param-text" x="1030" y="94">In Peak</text>
  <text class="param-text" x="1030" y="102">In Env Follower</text>
  <text class="param-text" x="1100" y="86">Velocity</text>

  <!-- ==================== BOTTOM ROW (y: 160-310) ==================== -->

  <!-- TRANSPOSE -->
  <text class="section-label" x="42" y="165">Transpose</text>
  <g id="switch-transpose-down" transform="translate(28, 175)">
    <rect class="switch" width="22" height="12" />
    <text class="switch-label" x="11" y="9">Down</text>
  </g>
  <g id="switch-transpose-up" transform="translate(28, 195)">
    <rect class="switch" width="22" height="12" />
    <text class="switch-label" x="11" y="9">Up</text>
  </g>

  <line class="divider" x1="60" y1="155" x2="60" y2="305" />

  <!-- ===== OSCILLATORS ===== -->
  <text class="section-label" x="155" y="165">Oscillators</text>

  <!-- OSC switches -->
  <g id="switch-osc1" transform="translate(68, 180)">
    <rect class="switch" width="14" height="10" />
    <text class="switch-label" x="7" y="8">1</text>
    <circle class="led-red" cx="7" cy="-6" r="3" />
  </g>
  <text class="sub-label" x="75" y="200">Analog</text>
  <g id="switch-osc2" transform="translate(88, 180)">
    <rect class="switch" width="14" height="10" />
    <text class="switch-label" x="7" y="8">2</text>
    <circle class="led-off" cx="7" cy="-6" r="3" />
  </g>
  <g id="switch-osc3" transform="translate(68, 270)">
    <rect class="switch" width="14" height="10" />
    <text class="switch-label" x="7" y="8">3</text>
    <circle class="led-off" cx="7" cy="-6" r="3" />
  </g>
  <text class="sub-label" x="75" y="290">Digital</text>
  <g id="switch-osc4" transform="translate(88, 270)">
    <rect class="switch" width="14" height="10" />
    <text class="switch-label" x="7" y="8">4</text>
    <circle class="led-off" cx="7" cy="-6" r="3" />
  </g>

  <!-- Osc knobs top row -->
  <g id="knob-osc-frequency" transform="translate(125, 218)">
    <circle class="knob-large" r="14" />
    <line class="knob-indicator" x1="0" y1="-4" x2="0" y2="-12" />
    <text class="knob-label" y="24">Frequency</text>
  </g>
  <g id="knob-osc-fine" transform="translate(165, 218)">
    <circle class="knob-large" r="14" />
    <line class="knob-indicator" x1="0" y1="-4" x2="0" y2="-12" />
    <text class="knob-label" y="24">Fine</text>
  </g>
  <g id="knob-osc-shapepw" transform="translate(205, 218)">
    <circle class="knob-large" r="14" />
    <line class="knob-indicator" x1="0" y1="-4" x2="0" y2="-12" />
    <text class="knob-label" y="24">Shape/PW</text>
  </g>
  <g id="knob-osc-level" transform="translate(245, 218)">
    <circle class="knob-large" r="14" />
    <line class="knob-indicator" x1="0" y1="-4" x2="0" y2="-12" />
    <text class="knob-label" y="24">Level</text>
  </g>

  <!-- Osc bottom row -->
  <g id="knob-osc-fm" transform="translate(125, 278)">
    <circle class="knob-large" r="14" />
    <line class="knob-indicator" x1="0" y1="-4" x2="0" y2="-12" />
    <text class="knob-label" y="24">FM</text>
  </g>
  <g id="knob-osc-ringmod" transform="translate(165, 278)">
    <circle class="knob-large" r="14" />
    <line class="knob-indicator" x1="0" y1="-4" x2="0" y2="-12" />
    <text class="knob-label" y="24">Ring Mod</text>
  </g>
  <g id="knob-osc-shapemod" transform="translate(205, 278)">
    <circle class="knob-large" r="14" />
    <line class="knob-indicator" x1="0" y1="-4" x2="0" y2="-12" />
    <text class="knob-label" y="24">Shape Mod</text>
  </g>
  <g id="knob-osc-glide" transform="translate(245, 278)">
    <circle class="knob-large" r="14" />
    <line class="knob-indicator" x1="0" y1="-4" x2="0" y2="-12" />
    <text class="knob-label" y="24">Glide</text>
  </g>

  <!-- Sync switch -->
  <g id="switch-sync" transform="translate(196, 174)">
    <rect class="switch" width="28" height="10" />
    <text class="switch-label" x="14" y="8">Sync 2&gt;1</text>
  </g>

  <line class="divider" x1="272" y1="155" x2="272" y2="305" />

  <!-- ===== NOISE + EXT IN ===== -->
  <text class="section-label" x="290" y="165">Noise</text>
  <g id="knob-noise-level" transform="translate(290, 218)">
    <circle class="knob-large" r="14" />
    <line class="knob-indicator" x1="0" y1="-4" x2="0" y2="-12" />
    <text class="knob-label" y="24">Level</text>
  </g>
  <text class="section-label" x="290" y="258">Ext In</text>
  <g id="knob-extin-level" transform="translate(290, 278)">
    <circle class="knob-large" r="14" />
    <line class="knob-indicator" x1="0" y1="-4" x2="0" y2="-12" />
    <text class="knob-label" y="24">Level</text>
  </g>

  <line class="divider" x1="318" y1="155" x2="318" y2="305" />

  <!-- ===== LOW-PASS FILTER ===== -->
  <text class="section-label" x="408" y="165">Low Pass Filter</text>

  <g id="switch-4pole" transform="translate(324, 178)">
    <rect class="switch" width="22" height="10" />
    <text class="switch-label" x="11" y="8">4 Pole</text>
    <circle class="led-off" cx="28" cy="5" r="3" />
  </g>

  <g id="knob-filter-frequency" transform="translate(370, 218)">
    <circle class="knob-large" r="14" />
    <line class="knob-indicator" x1="0" y1="-4" x2="0" y2="-12" />
    <text class="knob-label" y="24">Frequency</text>
  </g>
  <g id="knob-filter-resonance" transform="translate(410, 218)">
    <circle class="knob-large" r="14" />
    <line class="knob-indicator" x1="0" y1="-4" x2="0" y2="-12" />
    <text class="knob-label" y="24">Resonance</text>
  </g>
  <g id="knob-filter-envamount" transform="translate(450, 218)">
    <circle class="knob-large" r="14" />
    <line class="knob-indicator" x1="0" y1="-4" x2="0" y2="-12" />
    <text class="knob-label" y="24">Env Amount</text>
  </g>
  <g id="knob-filter-velocity" transform="translate(490, 218)">
    <circle class="knob-large" r="14" />
    <line class="knob-indicator" x1="0" y1="-4" x2="0" y2="-12" />
    <text class="knob-label" y="24">Velocity</text>
  </g>
  <g id="knob-filter-keyamount" transform="translate(530, 218)">
    <circle class="knob-large" r="14" />
    <line class="knob-indicator" x1="0" y1="-4" x2="0" y2="-12" />
    <text class="knob-label" y="24">Key Amount</text>
  </g>

  <!-- Filter bottom row: Audio Mod, LR Split, ADSR -->
  <g id="knob-filter-audiomod" transform="translate(370, 278)">
    <circle class="knob-large" r="14" />
    <line class="knob-indicator" x1="0" y1="-4" x2="0" y2="-12" />
    <text class="knob-label" y="24">Audio Mod</text>
  </g>
  <g id="knob-filter-lrsplit" transform="translate(410, 278)">
    <circle class="knob-large" r="14" />
    <line class="knob-indicator" x1="0" y1="-4" x2="0" y2="-12" />
    <text class="knob-label" y="24">L/R Split</text>
  </g>
  <g id="knob-filter-attack" transform="translate(450, 278)">
    <circle class="knob-large" r="14" />
    <line class="knob-indicator" x1="0" y1="-4" x2="0" y2="-12" />
    <text class="knob-label" y="24">Attack</text>
  </g>
  <g id="knob-filter-decay" transform="translate(490, 278)">
    <circle class="knob-large" r="14" />
    <line class="knob-indicator" x1="0" y1="-4" x2="0" y2="-12" />
    <text class="knob-label" y="24">Decay</text>
  </g>
  <g id="knob-filter-sustain" transform="translate(530, 278)">
    <circle class="knob-large" r="14" />
    <line class="knob-indicator" x1="0" y1="-4" x2="0" y2="-12" />
    <text class="knob-label" y="24">Sustain</text>
  </g>
  <g id="knob-filter-release" transform="translate(570, 278)">
    <circle class="knob-large" r="14" />
    <line class="knob-indicator" x1="0" y1="-4" x2="0" y2="-12" />
    <text class="knob-label" y="24">Release</text>
  </g>

  <line class="divider" x1="598" y1="155" x2="598" y2="305" />

  <!-- ===== AMP ===== -->
  <text class="section-label" x="660" y="165">Amp</text>

  <g id="knob-amp-vcalevel" transform="translate(618, 218)">
    <circle class="knob-large" r="14" />
    <line class="knob-indicator" x1="0" y1="-4" x2="0" y2="-12" />
    <text class="knob-label" y="24">VCA Level</text>
  </g>
  <g id="knob-amp-envamount" transform="translate(658, 218)">
    <circle class="knob-large" r="14" />
    <line class="knob-indicator" x1="0" y1="-4" x2="0" y2="-12" />
    <text class="knob-label" y="24">Env Amount</text>
  </g>
  <g id="knob-amp-velocity" transform="translate(698, 218)">
    <circle class="knob-large" r="14" />
    <line class="knob-indicator" x1="0" y1="-4" x2="0" y2="-12" />
    <text class="knob-label" y="24">Velocity</text>
  </g>
  <g id="knob-amp-outputpan" transform="translate(738, 218)">
    <circle class="knob-large" r="14" />
    <line class="knob-indicator" x1="0" y1="-4" x2="0" y2="-12" />
    <text class="knob-label" y="24">Output/Speed</text>
  </g>

  <!-- Amp ADSR -->
  <g id="knob-amp-attack" transform="translate(618, 278)">
    <circle class="knob-large" r="14" />
    <line class="knob-indicator" x1="0" y1="-4" x2="0" y2="-12" />
    <text class="knob-label" y="24">Attack</text>
  </g>
  <g id="knob-amp-decay" transform="translate(658, 278)">
    <circle class="knob-large" r="14" />
    <line class="knob-indicator" x1="0" y1="-4" x2="0" y2="-12" />
    <text class="knob-label" y="24">Decay</text>
  </g>
  <g id="knob-amp-sustain" transform="translate(698, 278)">
    <circle class="knob-large" r="14" />
    <line class="knob-indicator" x1="0" y1="-4" x2="0" y2="-12" />
    <text class="knob-label" y="24">Sustain</text>
  </g>
  <g id="knob-amp-release" transform="translate(738, 278)">
    <circle class="knob-large" r="14" />
    <line class="knob-indicator" x1="0" y1="-4" x2="0" y2="-12" />
    <text class="knob-label" y="24">Release</text>
  </g>

  <line class="divider" x1="766" y1="155" x2="766" y2="305" />

  <!-- ===== HP FILTER ===== -->
  <text class="section-label" x="790" y="165">HP Filter</text>
  <g id="knob-hpf-frequency" transform="translate(790, 218)">
    <circle class="knob-large" r="14" />
    <line class="knob-indicator" x1="0" y1="-4" x2="0" y2="-12" />
    <text class="knob-label" y="24">Frequency</text>
  </g>

  <line class="divider" x1="818" y1="155" x2="818" y2="305" />

  <!-- ===== FEEDBACK ===== -->
  <text class="section-label" x="852" y="165">Feedback</text>
  <g id="knob-feedback-frequency" transform="translate(838, 218)">
    <circle class="knob-large" r="14" />
    <line class="knob-indicator" x1="0" y1="-4" x2="0" y2="-12" />
    <text class="knob-label" y="24">Frequency</text>
  </g>
  <g id="knob-feedback-amount" transform="translate(878, 218)">
    <circle class="knob-large" r="14" />
    <line class="knob-indicator" x1="0" y1="-4" x2="0" y2="-12" />
    <text class="knob-label" y="24">Amount</text>
  </g>
  <g id="knob-feedback-grunge" transform="translate(838, 278)">
    <circle class="knob-large" r="14" />
    <line class="knob-indicator" x1="0" y1="-4" x2="0" y2="-12" />
    <text class="knob-label" y="24">Level</text>
  </g>

  <line class="divider" x1="908" y1="155" x2="908" y2="305" />

  <!-- ===== DISTORTION ===== -->
  <text class="section-label" x="938" y="165">Distortion</text>
  <g id="knob-distortion-amount" transform="translate(938, 218)">
    <circle class="knob-large" r="14" />
    <line class="knob-indicator" x1="0" y1="-4" x2="0" y2="-12" />
    <text class="knob-label" y="24">Amount</text>
  </g>
  <g id="knob-distortion-grunge" transform="translate(938, 278)">
    <circle class="knob-large" r="14" />
    <line class="knob-indicator" x1="0" y1="-4" x2="0" y2="-12" />
    <text class="knob-label" y="24">Grunge</text>
  </g>

  <line class="divider" x1="968" y1="155" x2="968" y2="305" />

  <!-- ===== DELAY ===== -->
  <text class="section-label" x="1020" y="165">Delay</text>

  <!-- Delay tap switches -->
  <g id="switch-delay1" transform="translate(1060, 178)">
    <rect class="switch" width="12" height="10" />
    <text class="switch-label" x="6" y="8">1</text>
    <circle class="led-red" cx="6" cy="-6" r="3" />
  </g>
  <g id="switch-delay2" transform="translate(1060, 198)">
    <rect class="switch" width="12" height="10" />
    <text class="switch-label" x="6" y="8">2</text>
    <circle class="led-off" cx="6" cy="-6" r="3" />
  </g>
  <g id="switch-delay3" transform="translate(1060, 218)">
    <rect class="switch" width="12" height="10" />
    <text class="switch-label" x="6" y="8">3</text>
    <circle class="led-off" cx="6" cy="-6" r="3" />
  </g>

  <g id="knob-delay-time" transform="translate(990, 218)">
    <circle class="knob-large" r="14" />
    <line class="knob-indicator" x1="0" y1="-4" x2="0" y2="-12" />
    <text class="knob-label" y="24">Time</text>
  </g>
  <g id="knob-delay-level" transform="translate(1030, 218)">
    <circle class="knob-large" r="14" />
    <line class="knob-indicator" x1="0" y1="-4" x2="0" y2="-12" />
    <text class="knob-label" y="24">Level</text>
  </g>

  <g id="knob-delay-amount" transform="translate(990, 278)">
    <circle class="knob-large" r="14" />
    <line class="knob-indicator" x1="0" y1="-4" x2="0" y2="-12" />
    <text class="knob-label" y="24">Amount</text>
  </g>
  <g id="knob-delay-feedback1" transform="translate(1030, 278)">
    <circle class="knob-large" r="14" />
    <line class="knob-indicator" x1="0" y1="-4" x2="0" y2="-12" />
    <text class="knob-label" y="24">Feedback 1</text>
  </g>
  <g id="knob-delay-feedback2" transform="translate(1070, 278)">
    <circle class="knob-large" r="14" />
    <line class="knob-indicator" x1="0" y1="-4" x2="0" y2="-12" />
    <text class="knob-label" y="24">Feedback 2</text>
  </g>

  <line class="divider" x1="1098" y1="155" x2="1098" y2="305" />

  <!-- ===== OUTPUT ===== -->
  <text class="section-label" x="1140" y="165">Output</text>
  <g id="knob-master-volume" transform="translate(1140, 240)">
    <circle class="knob-large" r="18" />
    <line class="knob-indicator" x1="0" y1="-5" x2="0" y2="-16" />
    <text class="knob-label" y="28">Master Vol</text>
  </g>

  <!-- ===== BRANDING ===== -->
  <text class="brand-text" x="1080" y="304">Dave Smith</text>
  <text class="brand-text" x="1080" y="314" font-size="5" letter-spacing="2.5px">INSTRUMENTS</text>

  <!-- ==================== KEYBOARD (bottom) ==================== -->

  <!-- Pitch bend + Mod wheel area -->
  <rect class="wheel-bg" x="24" y="330" width="50" height="180" />
  <g id="wheel-pitch-bend" transform="translate(34, 340)">
    <rect class="wheel" width="14" height="80" />
    <text class="knob-label" x="7" y="92">Pitch</text>
  </g>
  <g id="wheel-mod" transform="translate(54, 340)">
    <rect class="wheel" width="14" height="80" />
    <text class="knob-label" x="7" y="92">Mod</text>
  </g>

  <!-- Keyboard: 37 keys C-to-C -->
  <g id="keyboard" transform="translate(80, 330)">
    <!-- White keys -->
    <g id="keyboard-white-keys">
      <rect id="key-C2" class="key-white" x="0" y="0" width="28" height="180" />
      <rect id="key-D2" class="key-white" x="30" y="0" width="28" height="180" />
      <rect id="key-E2" class="key-white" x="60" y="0" width="28" height="180" />
      <rect id="key-F2" class="key-white" x="90" y="0" width="28" height="180" />
      <rect id="key-G2" class="key-white" x="120" y="0" width="28" height="180" />
      <rect id="key-A2" class="key-white" x="150" y="0" width="28" height="180" />
      <rect id="key-B2" class="key-white" x="180" y="0" width="28" height="180" />

      <rect id="key-C3" class="key-white" x="210" y="0" width="28" height="180" />
      <rect id="key-D3" class="key-white" x="240" y="0" width="28" height="180" />
      <rect id="key-E3" class="key-white" x="270" y="0" width="28" height="180" />
      <rect id="key-F3" class="key-white" x="300" y="0" width="28" height="180" />
      <rect id="key-G3" class="key-white" x="330" y="0" width="28" height="180" />
      <rect id="key-A3" class="key-white" x="360" y="0" width="28" height="180" />
      <rect id="key-B3" class="key-white" x="390" y="0" width="28" height="180" />

      <rect id="key-C4" class="key-white" x="420" y="0" width="28" height="180" />
      <rect id="key-D4" class="key-white" x="450" y="0" width="28" height="180" />
      <rect id="key-E4" class="key-white" x="480" y="0" width="28" height="180" />
      <rect id="key-F4" class="key-white" x="510" y="0" width="28" height="180" />
      <rect id="key-G4" class="key-white" x="540" y="0" width="28" height="180" />
      <rect id="key-A4" class="key-white" x="570" y="0" width="28" height="180" />
      <rect id="key-B4" class="key-white" x="600" y="0" width="28" height="180" />

      <rect id="key-C5" class="key-white" x="630" y="0" width="28" height="180" />
      <rect id="key-D5" class="key-white" x="660" y="0" width="28" height="180" />
      <rect id="key-E5" class="key-white" x="690" y="0" width="28" height="180" />
      <rect id="key-F5" class="key-white" x="720" y="0" width="28" height="180" />
      <rect id="key-G5" class="key-white" x="750" y="0" width="28" height="180" />
      <rect id="key-A5" class="key-white" x="780" y="0" width="28" height="180" />
      <rect id="key-B5" class="key-white" x="810" y="0" width="28" height="180" />

      <rect id="key-C6" class="key-white" x="840" y="0" width="28" height="180" />
      <rect id="key-D6" class="key-white" x="870" y="0" width="28" height="180" />
      <rect id="key-E6" class="key-white" x="900" y="0" width="28" height="180" />
      <rect id="key-F6" class="key-white" x="930" y="0" width="28" height="180" />
      <rect id="key-G6" class="key-white" x="960" y="0" width="28" height="180" />
      <rect id="key-A6" class="key-white" x="990" y="0" width="28" height="180" />
      <rect id="key-B6" class="key-white" x="1020" y="0" width="28" height="180" />

      <rect id="key-C7" class="key-white" x="1050" y="0" width="28" height="180" />
    </g>
    <!-- Black keys -->
    <g id="keyboard-black-keys">
      <rect id="key-Cs2" class="key-black" x="20" y="0" width="18" height="110" />
      <rect id="key-Ds2" class="key-black" x="50" y="0" width="18" height="110" />
      <rect id="key-Fs2" class="key-black" x="108" y="0" width="18" height="110" />
      <rect id="key-Gs2" class="key-black" x="140" y="0" width="18" height="110" />
      <rect id="key-As2" class="key-black" x="170" y="0" width="18" height="110" />

      <rect id="key-Cs3" class="key-black" x="230" y="0" width="18" height="110" />
      <rect id="key-Ds3" class="key-black" x="260" y="0" width="18" height="110" />
      <rect id="key-Fs3" class="key-black" x="318" y="0" width="18" height="110" />
      <rect id="key-Gs3" class="key-black" x="350" y="0" width="18" height="110" />
      <rect id="key-As3" class="key-black" x="380" y="0" width="18" height="110" />

      <rect id="key-Cs4" class="key-black" x="440" y="0" width="18" height="110" />
      <rect id="key-Ds4" class="key-black" x="470" y="0" width="18" height="110" />
      <rect id="key-Fs4" class="key-black" x="528" y="0" width="18" height="110" />
      <rect id="key-Gs4" class="key-black" x="560" y="0" width="18" height="110" />
      <rect id="key-As4" class="key-black" x="590" y="0" width="18" height="110" />

      <rect id="key-Cs5" class="key-black" x="650" y="0" width="18" height="110" />
      <rect id="key-Ds5" class="key-black" x="680" y="0" width="18" height="110" />
      <rect id="key-Fs5" class="key-black" x="738" y="0" width="18" height="110" />
      <rect id="key-Gs5" class="key-black" x="770" y="0" width="18" height="110" />
      <rect id="key-As5" class="key-black" x="800" y="0" width="18" height="110" />

      <rect id="key-Cs6" class="key-black" x="860" y="0" width="18" height="110" />
      <rect id="key-Ds6" class="key-black" x="890" y="0" width="18" height="110" />
      <rect id="key-Fs6" class="key-black" x="948" y="0" width="18" height="110" />
      <rect id="key-Gs6" class="key-black" x="980" y="0" width="18" height="110" />
      <rect id="key-As6" class="key-black" x="1010" y="0" width="18" height="110" />
    </g>
  </g>
</svg>